HIERARCHY
ROOT Hips
{
    OFFSET   0.000000   0.000000   0.000000
    CHANNELS 6 Xposition Yposition Zposition Zrotation Xrotation Yrotation
    JOINT Chest
    {
        OFFSET   0.000000   8.007230   0.000000
        CHANNELS 3 Zrotation Xrotation Yrotation
        JOINT Chest2
        {
            OFFSET   0.000000  22.077100   0.000000
            CHANNELS 3 Zrotation Xrotation Yrotation
            JOINT Neck
            {
                OFFSET   0.000000  23.255100   0.000000
                CHANNELS 3 Zrotation Xrotation Yrotation
                JOINT Head
                {
                    OFFSET   0.000000  14.370100   1.956600
                    CHANNELS 3 Zrotation Xrotation Yrotation
                    End Site
                    {
                        OFFSET   0.000000  19.566000   0.000000
                    }
                }
            }
            JOINT LeftCollar
            {
                OFFSET   3.911900  19.017000  -0.467063
                CHANNELS 3 Zrotation Xrotation Yrotation
                JOINT LeftShoulder
                {
                    OFFSET  10.383700   0.000000   0.000000
                    CHANNELS 3 Zrotation Xrotation Yrotation
                    JOINT LeftElbow
                    {
                        OFFSET  26.662100   0.001193   0.000980
                        CHANNELS 3 Zrotation Xrotation Yrotation
                        JOINT LeftWrist
                        {
                            OFFSET  28.869000  -0.000059  -0.000082
                            CHANNELS 3 Zrotation Xrotation Yrotation
                            JOINT LeftFinger0
                            {
                                OFFSET   2.044650  -2.323450   3.252850
                                CHANNELS 3 Zrotation Xrotation Yrotation
                                JOINT LeftFinger01
                                {
                                    OFFSET   3.088130   0.000000   0.000000
                                    CHANNELS 3 Zrotation Xrotation Yrotation
                                    JOINT LeftFinger02
                                    {
                                        OFFSET   2.639460   0.000000   0.000000
                                        CHANNELS 3 Zrotation Xrotation Yrotation
                                        End Site
                                        {
                                            OFFSET   2.582190   0.000000   0.000000
                                        }
                                    }
                                }
                            }
                            JOINT LeftFinger1
                            {
                                OFFSET   8.364480   0.000000   3.252850
                                CHANNELS 3 Zrotation Xrotation Yrotation
                                JOINT LeftFinger11
                                {
                                    OFFSET   4.646930   0.000000   0.000000
                                    CHANNELS 3 Zrotation Xrotation Yrotation
                                    JOINT LeftFinger12
                                    {
                                        OFFSET   2.323470   0.000000   0.000000
                                        CHANNELS 3 Zrotation Xrotation Yrotation
                                        End Site
                                        {
                                            OFFSET   2.273050   0.000000   0.000000
                                        }
                                    }
                                }
                            }
                            JOINT LeftFinger2
                            {
                                OFFSET   8.364490   0.000016   1.078090
                                CHANNELS 3 Zrotation Xrotation Yrotation
                                JOINT LeftFinger21
                                {
                                    OFFSET   5.111610   0.000000   0.000000
                                    CHANNELS 3 Zrotation Xrotation Yrotation
                                    JOINT LeftFinger22
                                    {
                                        OFFSET   2.788150   0.000016   0.000000
                                        CHANNELS 3 Zrotation Xrotation Yrotation
                                        End Site
                                        {
                                            OFFSET   2.727660   0.000000   0.000000
                                        }
                                    }
                                }
                            }
                            JOINT LeftFinger3
                            {
                                OFFSET   7.899780   0.000015  -1.078090
                                CHANNELS 3 Zrotation Xrotation Yrotation
                                JOINT LeftFinger31
                                {
                                    OFFSET   4.646930   0.000000   0.000000
                                    CHANNELS 3 Zrotation Xrotation Yrotation
                                    JOINT LeftFinger32
                                    {
                                        OFFSET   2.323470   0.000000   0.000000
                                        CHANNELS 3 Zrotation Xrotation Yrotation
                                        End Site
                                        {
                                            OFFSET   2.273050   0.000000   0.000000
                                        }
                                    }
                                }
                            }
                            JOINT LeftFinger4
                            {
                                OFFSET   7.435090   0.000000  -3.252850
                                CHANNELS 3 Zrotation Xrotation Yrotation
                                JOINT LeftFinger41
                                {
                                    OFFSET   3.717550   0.000000   0.000000
                                    CHANNELS 3 Zrotation Xrotation Yrotation
                                    JOINT LeftFinger42
                                    {
                                        OFFSET   1.858770   0.000000   0.000000
                                        CHANNELS 3 Zrotation Xrotation Yrotation
                                        End Site
                                        {
                                            OFFSET   1.818440   0.000000   0.000000
                                        }
                                    }
                                }
                            }
                        }
                    }
                }
            }
            JOINT RightCollar
            {
                OFFSET  -3.911910  19.017000  -0.467062
                CHANNELS 3 Zrotation Xrotation Yrotation
                JOINT RightShoulder
                {
                    OFFSET -10.383700   0.000014   0.000000
                    CHANNELS 3 Zrotation Xrotation Yrotation
                    JOINT RightElbow
                    {
                        OFFSET -26.662100   0.001225   0.001091
                        CHANNELS 3 Zrotation Xrotation Yrotation
                        JOINT RightWrist
                        {
                            OFFSET -28.869000  -0.000020  -0.000085
                            CHANNELS 3 Zrotation Xrotation Yrotation
                            JOINT RightFinger0
                            {
                                OFFSET  -2.044650  -2.323490   3.252850
                                CHANNELS 3 Zrotation Xrotation Yrotation
                                JOINT RightFinger01
                                {
                                    OFFSET  -3.088130   0.000000   0.000000
                                    CHANNELS 3 Zrotation Xrotation Yrotation
                                    JOINT RightFinger02
                                    {
                                        OFFSET  -2.639460   0.000000   0.000000
                                        CHANNELS 3 Zrotation Xrotation Yrotation
                                        End Site
                                        {
                                            OFFSET  -2.582190   0.000000   0.000000
                                        }
                                    }
                                }
                            }
                            JOINT RightFinger1
                            {
                                OFFSET  -8.364480   0.000000   3.252850
                                CHANNELS 3 Zrotation Xrotation Yrotation
                                JOINT RightFinger11
                                {
                                    OFFSET  -4.646930   0.000000   0.000000
                                    CHANNELS 3 Zrotation Xrotation Yrotation
                                    JOINT RightFinger12
                                    {
                                        OFFSET  -2.323470   0.000000   0.000000
                                        CHANNELS 3 Zrotation Xrotation Yrotation
                                        End Site
                                        {
                                            OFFSET  -2.273050   0.000000   0.000000
                                        }
                                    }
                                }
                            }
                            JOINT RightFinger2
                            {
                                OFFSET  -8.364480   0.000000   1.078090
                                CHANNELS 3 Zrotation Xrotation Yrotation
                                JOINT RightFinger21
                                {
                                    OFFSET  -5.111620   0.000000   0.000000
                                    CHANNELS 3 Zrotation Xrotation Yrotation
                                    JOINT RightFinger22
                                    {
                                        OFFSET  -2.788160   0.000000   0.000000
                                        CHANNELS 3 Zrotation Xrotation Yrotation
                                        End Site
                                        {
                                            OFFSET  -2.727660   0.000000   0.000000
                                        }
                                    }
                                }
                            }
                            JOINT RightFinger3
                            {
                                OFFSET  -7.899780   0.000000  -1.078090
                                CHANNELS 3 Zrotation Xrotation Yrotation
                                JOINT RightFinger31
                                {
                                    OFFSET  -4.646930   0.000000   0.000000
                                    CHANNELS 3 Zrotation Xrotation Yrotation
                                    JOINT RightFinger32
                                    {
                                        OFFSET  -2.323470   0.000000   0.000000
                                        CHANNELS 3 Zrotation Xrotation Yrotation
                                        End Site
                                        {
                                            OFFSET  -2.273050   0.000000   0.000000
                                        }
                                    }
                                }
                            }
                            JOINT RightFinger4
                            {
                                OFFSET  -7.435090   0.000000  -3.252850
                                CHANNELS 3 Zrotation Xrotation Yrotation
                                JOINT RightFinger41
                                {
                                    OFFSET  -3.717550   0.000000   0.000000
                                    CHANNELS 3 Zrotation Xrotation Yrotation
                                    JOINT RightFinger42
                                    {
                                        OFFSET  -1.858760   0.000000   0.000000
                                        CHANNELS 3 Zrotation Xrotation Yrotation
                                        End Site
                                        {
                                            OFFSET  -1.818440   0.000000   0.000000
                                        }
                                    }
                                }
                            }
                        }
                    }
                }
            }
        }
    }
    JOINT LeftHip
    {
        OFFSET   9.783030   0.000000   0.000000
        CHANNELS 3 Zrotation Xrotation Yrotation
        JOINT LeftKnee
        {
            OFFSET   0.000063 -41.789100   0.000608
            CHANNELS 3 Zrotation Xrotation Yrotation
            JOINT LeftAnkle
            {
                OFFSET   0.000048 -41.133200  -0.000184
                CHANNELS 3 Zrotation Xrotation Yrotation
                JOINT LeftToe
                {
                    OFFSET   0.000000  -6.358960  14.674500
                    CHANNELS 3 Zrotation Xrotation Yrotation
                    End Site
                    {
                        OFFSET   0.000000   0.000000   3.913200
                    }
                }
            }
        }
    }
    JOINT RightHip
    {
        OFFSET  -9.783030   0.000000   0.000000
        CHANNELS 3 Zrotation Xrotation Yrotation
        JOINT RightKnee
        {
            OFFSET   0.000071 -41.789100   0.001239
            CHANNELS 3 Zrotation Xrotation Yrotation
            JOINT RightAnkle
            {
                OFFSET   0.000037 -41.133200  -0.000166
                CHANNELS 3 Zrotation Xrotation Yrotation
                JOINT RightToe
                {
                    OFFSET   0.000000  -6.358960  14.674500
                    CHANNELS 3 Zrotation Xrotation Yrotation
                    End Site
                    {
                        OFFSET   0.000000   0.000000   3.913200
                    }
                }
            }
        }
    }
}
MOTION
Frames: 4
Frame Time:   0.016667
  0.069245  89.592700  -1.444580  -3.675230  -9.677340  -2.426220   0.944304   6.007300   1.220970   1.773650  12.032800   2.361290   0.455287  -0.335085   0.001244   0.749213  -0.678984   1.257300  -4.500510   0.504806  -0.743128 -72.425100  17.469100  -2.772980  -1.988280  -5.024630 -18.652900  16.151100 -16.644500   6.628930  42.520700  31.734000 -64.177500 -24.559200   0.000246   0.000212  -7.264900   0.000213   0.000587 -24.544000   4.328480  -9.385850 -20.372200  -0.002382  -0.004253 -14.260500  -0.001672  -0.000469 -27.144100  -0.034421   0.067164 -27.585800  -0.004035   0.001311 -18.372100  -0.002837  -0.004662 -27.027900  -0.034277   0.067226 -27.094300  -0.003674  -0.008295 -18.044800   0.000000  -0.004534 -27.109300  -0.034362   0.067176 -40.664000  -0.000340  -0.008810 -27.082200   0.003227  -0.006119  10.077100   1.670530   7.245460  66.468000   7.026090  -8.042700  -1.128530  -8.801600  13.151900  -7.364060  -4.568430   4.039390 -36.748600  31.204500  64.419200  33.059100  -0.001610  -0.006972  11.529500  -0.000797   0.005857  32.665900   9.710240  14.738800  27.756600  -0.003668   0.004309  19.433400   0.002698   0.003724  28.649100   2.933790   5.350700  42.027300  -0.006054   0.007497  27.990200  -0.004504   0.007484  28.654900   2.934310   5.350410  42.581300  -0.015157   0.006657  28.359200   0.003885   0.005861  42.940400  -1.980240  -2.126820  64.465600  -0.012683   0.001297  42.934100   0.005494   0.013126   2.189470  11.180400   3.541660   1.010570   0.086753   6.522600  -0.459856  -2.738210   3.373450  -0.000000   0.000000   0.000000   4.384670   7.722850  -6.300280  -2.619080   5.476000  -9.200320   0.184508  -4.166950  -0.260757   0.000000   0.000000  -0.000000
  0.054134  89.592700  -1.438280  -3.676600  -9.677290  -2.433100   0.940093   6.006970   1.222740   1.764960  12.032100   2.365320   0.455556  -0.321288   0.001244   0.749508  -0.651154   1.259800  -4.500370   0.508585  -0.752581 -72.418800  17.482100  -2.779420  -1.983560  -5.004400 -18.674300  16.142600 -16.624800   6.616040  42.525100  31.721200 -64.141400 -24.544500   0.000240   0.000207  -7.264900   0.000216   0.000582 -24.526800   4.328440  -9.384340 -20.358400  -0.002389  -0.004254 -14.250900  -0.001674  -0.000467 -27.144200  -0.035755   0.069774 -27.564800  -0.004042   0.001313 -18.358200  -0.002838  -0.004662 -27.028000  -0.035611   0.069837 -27.080600  -0.003675  -0.008295 -18.035600   0.000000  -0.004538 -27.100300  -0.035694   0.069790 -40.650500  -0.000339  -0.008805 -27.073200   0.003229  -0.006122  10.074400   1.669840   7.234960  66.467700   7.014930  -8.052580  -1.125150  -8.802220  13.134400  -7.354550  -4.563200   4.036820 -36.752700  31.213700  64.440100  33.059100  -0.001601  -0.006974  11.529500  -0.000793   0.005861  32.659400   9.718400  14.755500  27.753200  -0.003665   0.004297  19.429400   0.002702   0.003713  28.647300   2.942770   5.367190  42.020100  -0.006063   0.007496  27.985400  -0.004507   0.007478  28.653200   2.943300   5.366890  42.572600  -0.015155   0.006650  28.353400   0.003885   0.005857  42.935400  -1.979110  -2.125860  64.458100  -0.012694   0.001276  42.929100   0.005488   0.013135   2.193550  11.206700   3.542180   1.010030   0.042490   6.531140  -0.464225  -2.722050   3.372960  -0.000000   0.000000   0.000000   4.384960   7.727120  -6.300390  -2.602960   5.465610  -9.213040   0.180049  -4.166590  -0.240752   0.000000   0.000000   0.000000
  0.029049  89.592700  -1.426970  -3.678640  -9.677210  -2.444030   0.933751   6.006630   1.225440   1.751900  12.031300   2.371430   0.455825  -0.297114   0.001239   0.749338  -0.602349   1.262290  -4.500180   0.514036  -0.765735 -72.409900  17.503900  -2.793170  -1.979410  -4.982210 -18.708700  16.134000 -16.605100   6.603150  42.530200  31.699100 -64.093500 -24.529800   0.000234   0.000191  -7.264900   0.000219   0.000577 -24.509700   4.328380  -9.381100 -20.344700  -0.002404  -0.004259 -14.241300  -0.001681  -0.000464 -27.144400  -0.039273   0.076647 -27.543800  -0.004056   0.001317 -18.344200  -0.002845  -0.004663 -27.028100  -0.039125   0.076716 -27.066800  -0.003675  -0.008295 -18.026500   0.000000  -0.004546 -27.091200  -0.039214   0.076668 -40.637000  -0.000336  -0.008789 -27.064200   0.003235  -0.006130  10.069400   1.664760   7.217610  66.467900   7.001460  -8.069710  -1.117140  -8.803340  13.102400  -7.345330  -4.557990   4.030550 -36.756900  31.222800  64.460900  33.059100  -0.001593  -0.006978  11.529500  -0.000788   0.005865  32.647400   9.726570  14.772200  27.745600  -0.003654   0.004270  19.421900   0.002708   0.003686  28.645500   2.951750   5.383680  42.001700  -0.006087   0.007492  27.973200  -0.004514   0.007463  28.651600   2.952280   5.383380  42.549500  -0.015151   0.006633  28.338000   0.003880   0.005848  42.922100  -1.975460  -2.122780  64.438100  -0.012722   0.001222  42.915800   0.005472   0.013159   2.201610  11.232900   3.542710   1.009510  -0.001772   6.545180  -0.473241  -2.705880   3.371870   0.000000   0.000000   0.000000   4.385580   7.735950  -6.300570  -2.577690   5.449490  -9.231020   0.171455  -4.166240  -0.210813  -0.000000   0.000000   0.000000
  0.009191  89.592700  -1.416290  -3.678420  -9.676540  -2.451250   0.929563   6.008580   1.227120   1.743160  12.035100   2.375220   0.454242  -0.275135   0.001232   0.746292  -0.557907   1.251610  -4.500100   0.516458  -0.769850 -72.411500  17.519500  -2.810050  -1.976390  -4.979660 -18.733100  16.154300 -16.622000   6.609250  42.524100  31.683200 -64.073400 -24.529900   0.000237   0.000153  -7.266290   0.000213   0.000590 -24.515000   4.328340  -9.375630 -20.348900  -0.002422  -0.004269 -14.244200  -0.001695  -0.000462 -27.144500  -0.045594   0.088973 -27.551200  -0.004072   0.001322 -18.349100  -0.002859  -0.004664 -27.028100  -0.045425   0.089058 -27.075900  -0.003675  -0.008296 -18.032600   0.000000  -0.004559 -27.098000  -0.045540   0.088998 -40.647200  -0.000333  -0.008763 -27.071000   0.003244  -0.006139  10.064600   1.650870   7.204130  66.461700   6.998620  -8.087110  -1.103140  -8.808540  13.073700  -7.348460  -4.559610   4.023000 -36.754600  31.230100  64.437900  33.076100  -0.001599  -0.006979  11.538000  -0.000790   0.005858  32.633900   9.709660  14.755200  27.731700  -0.003633   0.004230  19.412000   0.002710   0.003646  28.647100   2.941620   5.365220  41.965700  -0.006128   0.007485  27.949200  -0.004528   0.007438  28.653500   2.942170   5.364920  42.503900  -0.015142   0.006610  28.307700   0.003868   0.005836  42.898300  -1.967830  -2.116340  64.402100  -0.012766   0.001138  42.891800   0.005447   0.013193   2.209610  11.229800   3.542600   1.013090   0.020037   6.556370  -0.484839  -2.721830   3.370430  -0.000000   0.000000   0.000000   4.386210   7.745980  -6.300720  -2.560800   5.438860  -9.236920   0.161804  -4.170280  -0.195059   0.000000   0.000000   0.000000
